<?xml version="1.0" encoding="utf-8"?>
<!-- Generator: Adobe Illustrator 28.0.0, SVG Export Plug-In . SVG Version: 6.00 Build 0)  -->
<svg version="1.1" id="Layer_1" xmlns="http://www.w3.org/2000/svg" xmlns:xlink="http://www.w3.org/1999/xlink" x="0px" y="0px"
	 viewBox="0 0 425 341" style="enable-background:new 0 0 425 341;" xml:space="preserve">
<style type="text/css">
	.st0{filter:url(#filter-2);}
	.st1{fill-rule:evenodd;clip-rule:evenodd;}
	.st2{fill-rule:evenodd;clip-rule:evenodd;fill:#FFFFFF;stroke:#FF6A00;stroke-width:20;}
	.st3{filter:url(#filter-4);}
	.st4{fill-rule:evenodd;clip-rule:evenodd;fill:#FF6A00;stroke:#FFFFFF;stroke-width:13.4831;}
	.st5{fill:#FFFFFF;}
	.st6{font-family:'Arial-BoldMT';}
	.st7{font-size:100px;}
</style>
<filter  filterUnits="objectBoundingBox" height="145.1%" id="filter-4" width="128.3%" x="-14.2%" y="-20.2%">
	<feMorphology  in="SourceAlpha" operator="dilate" radius="13.4831461" result="shadowSpreadOuter1"></feMorphology>
	<feOffset  dx="0" dy="0" in="shadowSpreadOuter1" result="shadowOffsetOuter1"></feOffset>
	<feGaussianBlur  in="shadowOffsetOuter1" result="shadowBlurOuter1" stdDeviation="11.5"></feGaussianBlur>
	<feComposite  in="shadowBlurOuter1" in2="SourceAlpha" operator="out" result="shadowBlurOuter1"></feComposite>
	<feColorMatrix  in="shadowBlurOuter1" type="matrix" values="0 0 0 0 0   0 0 0 0 0   0 0 0 0 0  0 0 0 0.3 0"></feColorMatrix>
</filter>
<filter  filterUnits="objectBoundingBox" height="152.9%" id="filter-2" width="132.2%" x="-16.1%" y="-22.9%">
	<feMorphology  in="SourceAlpha" operator="dilate" radius="20" result="shadowSpreadOuter1"></feMorphology>
	<feOffset  dx="0" dy="0" in="shadowSpreadOuter1" result="shadowOffsetOuter1"></feOffset>
	<feGaussianBlur  in="shadowOffsetOuter1" result="shadowBlurOuter1" stdDeviation="11.5"></feGaussianBlur>
	<feComposite  in="shadowBlurOuter1" in2="SourceAlpha" operator="out" result="shadowBlurOuter1"></feComposite>
	<feColorMatrix  in="shadowBlurOuter1" type="matrix" values="0 0 0 0 0   0 0 0 0 0   0 0 0 0 0  0 0 0 0.3 0"></feColorMatrix>
</filter>
<g id="Featured-Icons">
	<g id="Icons_x2F_Elections_x2F_20-Copy-80" transform="translate(43, 43)">
		<g id="Combined-Shape">
			<g class="st0">
				<path id="path-1_00000144314130886554237090000009803993643134655914_" class="st1" d="M318.8,0c10.7,0,19.4,8.7,19.4,19.4v153
					c0,10.7-8.7,19.4-19.4,19.4l-116.8,0l-29.7,46l-29.7-46l-123.6,0c-10.7,0-19.4-8.7-19.4-19.4v-153C-0.5,8.7,8.2,0,18.9,0H318.8z
					"/>
			</g>
			<path class="st2" d="M318.8-10c8.1,0,15.5,3.3,20.8,8.6s8.6,12.7,8.6,20.8v153c0,8.1-3.3,15.5-8.6,20.8
				c-5.3,5.3-12.7,8.6-20.8,8.6l-111.3,0l-35.2,54.4l-35.2-54.4l-118.1,0c-8.1,0-15.5-3.3-20.8-8.6c-5.3-5.3-8.6-12.7-8.6-20.8v-153
				c0-8.1,3.3-15.5,8.6-20.8S10.8-10,18.9-10H318.8z"/>
		</g>
		<g id="Pin">
			<g class="st3">
				<path id="path-3_00000147183521508572621010000011865307549303055779_" class="st1" d="M318.8,0c10.7,0,19.4,8.7,19.4,19.4v153
					c0,10.7-8.7,19.4-19.4,19.4l-117.8,0l-29.7,46l-29.7-46l-122.6,0c-10.7,0-19.4-8.7-19.4-19.4v-153C-0.5,8.7,8.2,0,18.9,0H318.8z
					"/>
			</g>
			<path class="st4" d="M318.8-6.7c7.2,0,13.8,2.9,18.5,7.7s7.7,11.3,7.7,18.5v153c0,7.2-2.9,13.8-7.7,18.5s-11.3,7.7-18.5,7.7
				l-114.1,0l-33.4,51.7l-33.4-51.7l-118.9,0c-7.2,0-13.8-2.9-18.5-7.7s-7.7-11.3-7.7-18.5v-153c0-7.2,2.9-13.8,7.7-18.5
				s11.3-7.7,18.5-7.7H318.8z"/>
		</g>
		<text transform="matrix(1 0 0 1 15.9102 133)" class="st5 st6 st7">1000.5</text>
	</g>
</g>
</svg>
