<?xml version="1.0" encoding="utf-8"?>
<!-- Generator: Adobe Illustrator 28.0.0, SVG Export Plug-In . SVG Version: 6.00 Build 0)  -->
<svg version="1.1" id="Layer_1" xmlns="http://www.w3.org/2000/svg" xmlns:xlink="http://www.w3.org/1999/xlink" x="0px" y="0px"
	 viewBox="0 0 286 341" style="enable-background:new 0 0 286 341;" xml:space="preserve">
<style type="text/css">
	.st0{fill-rule:evenodd;clip-rule:evenodd;}
	.st1{fill-rule:evenodd;clip-rule:evenodd;fill:#FFFFFF;stroke:#FF6A00;stroke-width:20;}
	.st2{fill-rule:evenodd;clip-rule:evenodd;fill:#FF6A00;stroke:#FFFFFF;stroke-width:13.4831;}
	.st3{fill:#FFFFFF;}
	.st4{font-family:'Arial-BoldMT';}
	.st5{font-size:100px;}
</style>
<g id="Featured-Icons">
	<g id="Icons_x2F_Elections_x2F_20-Copy-79" transform="translate(43, 43)">
		<g id="Combined-Shape">
			<g>
				<path id="path-1" class="st0" d="M180.6,0C191.3,0,200,8.7,200,19.4v153c0,10.7-8.7,19.4-19.4,19.4l-47.1,0l-29.7,46l-29.7-46
					l-54.6,0C8.7,191.9,0,183.2,0,172.4v-153C0,8.7,8.7,0,19.4,0H180.6z"/>
			</g>
			<path class="st1" d="M180.6-10c8.1,0,15.5,3.3,20.8,8.6c5.3,5.3,8.6,12.7,8.6,20.8v153c0,8.1-3.3,15.5-8.6,20.8
				c-5.3,5.3-12.7,8.6-20.8,8.6l-41.6,0l-35.2,54.4l-35.2-54.4l-49.1,0c-8.1,0-15.5-3.3-20.8-8.6c-5.3-5.3-8.6-12.7-8.6-20.8v-153
				C-10,11.3-6.7,4-1.4-1.4S11.3-10,19.4-10H180.6z"/>
		</g>
		<g id="Pin">
			<g>
				<path id="path-3" class="st0" d="M180.6,0C191.3,0,200,8.7,200,19.4v153c0,10.7-8.7,19.4-19.4,19.4l-47.1,0l-29.7,46l-29.7-46
					l-54.6,0C8.7,191.9,0,183.2,0,172.4v-153C0,8.7,8.7,0,19.4,0H180.6z"/>
			</g>
			<path class="st2" d="M180.6-6.7c7.2,0,13.8,2.9,18.5,7.7c4.7,4.7,7.7,11.3,7.7,18.5v153c0,7.2-2.9,13.8-7.7,18.5
				c-4.7,4.7-11.3,7.7-18.5,7.7l-43.4,0l-33.4,51.7l-33.4-51.7l-50.9,0c-7.2,0-13.8-2.9-18.5-7.7s-7.7-11.3-7.7-18.5v-153
				c0-7.2,2.9-13.8,7.7-18.5s11.3-7.7,18.5-7.7H180.6z"/>
		</g>
		<text transform="matrix(1 0 0 1 1.2 133)" class="st3 st4 st5">12.0</text>
	</g>
</g>
</svg>
