<?xml version="1.0" encoding="UTF-8" standalone="no"?> <svg id="Layer_1" data-name="Layer 1" xmlns="http://www.w3.org/2000/svg" width="48" height="48" viewBox="0 0 48 48">
<title>Bulb</title>
    <path d="M20,34a1.69,1.69,0,0,0,.27.9l.87,1.3a1.63,1.63,0,0,0,1.35.72h3.12a1.63,1.63,0,0,0,1.35-.72l.87-1.3a1.69,1.69,0,0,0,.27-.9V32.1H20Z"/>
    <path d="M24,11A8.9,8.9,0,0,0,17.3,25.81a14.78,14.78,0,0,1,2.64,4.63v0h8.12v0a14.78,14.78,0,0,1,2.64-4.63A8.8,8.8,0,0,0,32.91,20,8.9,8.9,0,0,0,24,11Zm0,4.86A4.06,4.06,0,0,0,20,20a.81.81,0,1,1-1.62,0A5.67,5.67,0,0,1,24,14.28a.81.81,0,0,1,0,1.62Z"/>
    </svg>